# xmcd CD database file
#
# Track frame offsets:
#	150
#	16381
#	34287
#	55307
#
# Disc length: 951 seconds
#
# Revision: 0
# Processed by: cddbd v1.5.1PL2 Copyright (c) Steve Scherf et al.
# Submitted via: CDex 1.51
#
DISCID=2e03b504
DTITLE=Kimeru - 恋のパフォーマンス
DYEAR=1900
DGENRE=JPop
TTITLE0=恋のパフォーマンス〜to be with you〜
TTITLE1=HERO
TTITLE2=Pink 〜from TOUR“glorious”〜
TTITLE3=恋のパフォーマンス〜to be with you〜 (instrumental)
EXTD=
EXTT0=
EXTT1=
EXTT2=
EXTT3=
PLAYORDER=
